<?xml version="1.0" encoding="UTF-8" standalone="no"?>
<!-- Created with Inkscape (http://www.inkscape.org/) -->

<svg
   xmlns:dc="http://purl.org/dc/elements/1.1/"
   xmlns:cc="http://creativecommons.org/ns#"
   xmlns:rdf="http://www.w3.org/1999/02/22-rdf-syntax-ns#"
   xmlns:svg="http://www.w3.org/2000/svg"
   xmlns="http://www.w3.org/2000/svg"
   xmlns:sodipodi="http://sodipodi.sourceforge.net/DTD/sodipodi-0.dtd"
   xmlns:inkscape="http://www.inkscape.org/namespaces/inkscape"
   width="330mm"
   height="45mm"
   viewBox="0 0 330 45"
   version="1.1"
   id="svg8"
   sodipodi:docname="datawookie.svg"
   inkscape:version="0.92.3 (2405546, 2018-03-11)">
  <defs
     id="defs2" />
  <sodipodi:namedview
     id="base"
     pagecolor="#ffffff"
     bordercolor="#666666"
     borderopacity="1.0"
     inkscape:pageopacity="0.0"
     inkscape:pageshadow="2"
     inkscape:zoom="0.35"
     inkscape:cx="588.57143"
     inkscape:cy="291.42857"
     inkscape:document-units="mm"
     inkscape:current-layer="text817"
     showgrid="false"
     inkscape:window-width="1600"
     inkscape:window-height="832"
     inkscape:window-x="320"
     inkscape:window-y="1080"
     inkscape:window-maximized="1" />
  <metadata
     id="metadata5">
    <rdf:RDF>
      <cc:Work
         rdf:about="">
        <dc:format>image/svg+xml</dc:format>
        <dc:type
           rdf:resource="http://purl.org/dc/dcmitype/StillImage" />
        <dc:title></dc:title>
      </cc:Work>
    </rdf:RDF>
  </metadata>
  <g
     inkscape:label="Layer 1"
     inkscape:groupmode="layer"
     id="layer1"
     transform="translate(0,-252)">
    <g
       aria-label="datawookie"
       style="font-style:normal;font-weight:normal;font-size:10.58333302px;line-height:1.25;font-family:sans-serif;letter-spacing:-0.32014585px;word-spacing:-0.23283333px;fill:#000000;fill-opacity:1;stroke:none;stroke-width:0.26458332"
       id="text817">
      <g
         id="g876"
         transform="matrix(1.0907727,0,0,1.0907727,-1.3428357,-27.644043)">
        <path
           id="path962"
           style="font-style:normal;font-variant:normal;font-weight:normal;font-stretch:normal;font-size:47.625px;line-height:1.25em;font-family:Orbitron;-inkscape-font-specification:Orbitron;stroke-width:0.26458332"
           d="m 27.589673,258.66438 h 3.90525 v 36.67125 H 9.1587981 q -2.428875,0 -4.143375,-1.66687 -1.666875,-1.7145 -1.666875,-4.09575 v -16.09725 q 0,-2.38125 1.666875,-4.04813 1.7145,-1.7145 4.143375,-1.7145 H 27.589673 Z m -18.4308749,32.766 H 25.732298 q 0.762,0 1.285875,-0.52387 0.5715,-0.5715 0.5715,-1.3335 v -16.09725 q 0,-0.762 -0.5715,-1.28588 -0.523875,-0.5715 -1.285875,-0.5715 H 9.1587981 q -0.762,0 -1.3335,0.5715 -0.523875,0.52388 -0.523875,1.28588 v 16.09725 q 0,0.762 0.523875,1.3335 0.5715,0.52387 1.3335,0.52387 z"
           inkscape:connector-curvature="0" />
        <path
           id="path964"
           style="font-style:normal;font-variant:normal;font-weight:normal;font-stretch:normal;font-size:47.625px;line-height:1.25em;font-family:Orbitron;-inkscape-font-specification:Orbitron;stroke-width:0.26458332"
           d="m 58.557663,267.71313 q 2.428875,0 4.09575,1.7145 1.7145,1.66688 1.7145,4.04813 v 21.85987 h -22.38375 q -2.38125,0 -4.09575,-1.66687 -1.666875,-1.7145 -1.666875,-4.09575 v -10.00125 h 24.1935 v -6.096 q 0,-0.762 -0.5715,-1.28588 -0.523875,-0.5715 -1.285875,-0.5715 H 36.221538 v -3.90525 z m 1.857375,23.71725 v -7.95337 h -20.28825 v 6.096 q 0,0.762 0.523875,1.3335 0.5715,0.52387 1.3335,0.52387 z"
           inkscape:connector-curvature="0" />
        <path
           id="path966"
           style="font-style:normal;font-variant:normal;font-weight:normal;font-stretch:normal;font-size:47.625px;line-height:1.25em;font-family:Orbitron;-inkscape-font-specification:Orbitron;stroke-width:0.26458332"
           d="M 84.829386,271.61838 H 72.875511 v 17.95463 q 0,0.762 0.523875,1.3335 0.5715,0.52387 1.3335,0.52387 h 10.0965 v 3.90525 h -10.0965 q -2.428875,0 -4.09575,-1.66687 -1.666875,-1.7145 -1.666875,-4.09575 v -30.90863 h 3.90525 v 9.04875 h 11.953875 z"
           inkscape:connector-curvature="0" />
        <path
           id="path968"
           style="font-style:normal;font-variant:normal;font-weight:normal;font-stretch:normal;font-size:47.625px;line-height:1.25em;font-family:Orbitron;-inkscape-font-specification:Orbitron;stroke-width:0.26458332"
           d="m 110.47231,267.71313 q 2.42887,0 4.09575,1.7145 1.7145,1.66688 1.7145,4.04813 v 21.85987 H 93.898808 q -2.38125,0 -4.09575,-1.66687 -1.666875,-1.7145 -1.666875,-4.09575 v -10.00125 h 24.193497 v -6.096 q 0,-0.762 -0.5715,-1.28588 -0.52387,-0.5715 -1.28587,-0.5715 H 88.136183 v -3.90525 z m 1.85737,23.71725 v -7.95337 H 92.041433 v 6.096 q 0,0.762 0.523875,1.3335 0.5715,0.52387 1.3335,0.52387 z"
           inkscape:connector-curvature="0" />
        <path
           id="path970"
           style="font-style:normal;font-variant:normal;font-weight:normal;font-stretch:normal;font-size:47.625px;line-height:1.25em;font-family:Orbitron;-inkscape-font-specification:Orbitron;stroke-width:0.26458332"
           d="m 162.54263,267.71313 h 4.23863 l -10.42988,27.6225 h -3.38137 l -10.287,-22.81237 -9.76313,22.81237 h -3.429 l -10.8585,-27.6225 h 4.191 l 8.382,20.574 8.90588,-20.574 h 5.1435 l 9.47737,20.52638 z"
           inkscape:connector-curvature="0" />
        <path
           id="path972"
           style="font-style:normal;font-variant:normal;font-weight:normal;font-stretch:normal;font-size:47.625px;line-height:1.25em;font-family:Orbitron;-inkscape-font-specification:Orbitron;stroke-width:0.26458332"
           d="m 174.88033,267.71313 h 16.5735 q 2.42887,0 4.09575,1.7145 1.7145,1.66688 1.7145,4.04813 v 16.09725 q 0,2.38125 -1.7145,4.09575 -1.66688,1.66687 -4.09575,1.66687 h -16.5735 q -2.38125,0 -4.09575,-1.66687 -1.66688,-1.7145 -1.66688,-4.09575 v -16.09725 q 0,-2.38125 1.66688,-4.04813 1.7145,-1.7145 4.09575,-1.7145 z m 16.5735,3.90525 h -16.5735 q -0.762,0 -1.3335,0.5715 -0.52388,0.52388 -0.52388,1.28588 v 16.09725 q 0,0.762 0.52388,1.3335 0.5715,0.52387 1.3335,0.52387 h 16.5735 q 0.762,0 1.28587,-0.52387 0.5715,-0.5715 0.5715,-1.3335 v -16.09725 q 0,-0.762 -0.5715,-1.28588 -0.52387,-0.5715 -1.28587,-0.5715 z"
           inkscape:connector-curvature="0" />
        <path
           id="path974"
           style="font-style:normal;font-variant:normal;font-weight:normal;font-stretch:normal;font-size:47.625px;line-height:1.25em;font-family:Orbitron;-inkscape-font-specification:Orbitron;stroke-width:0.26458332"
           d="m 206.55823,267.71313 h 16.5735 q 2.42887,0 4.09575,1.7145 1.7145,1.66688 1.7145,4.04813 v 16.09725 q 0,2.38125 -1.7145,4.09575 -1.66688,1.66687 -4.09575,1.66687 h -16.5735 q -2.38125,0 -4.09575,-1.66687 -1.66688,-1.7145 -1.66688,-4.09575 v -16.09725 q 0,-2.38125 1.66688,-4.04813 1.7145,-1.7145 4.09575,-1.7145 z m 16.5735,3.90525 h -16.5735 q -0.762,0 -1.3335,0.5715 -0.52388,0.52388 -0.52388,1.28588 v 16.09725 q 0,0.762 0.52388,1.3335 0.5715,0.52387 1.3335,0.52387 h 16.5735 q 0.762,0 1.28587,-0.52387 0.5715,-0.5715 0.5715,-1.3335 v -16.09725 q 0,-0.762 -0.5715,-1.28588 -0.52387,-0.5715 -1.28587,-0.5715 z"
           inkscape:connector-curvature="0" />
        <path
           id="path976"
           style="font-style:normal;font-variant:normal;font-weight:normal;font-stretch:normal;font-size:47.625px;line-height:1.25em;font-family:Orbitron;-inkscape-font-specification:Orbitron;stroke-width:0.26458332"
           d="m 255.93029,267.71313 h 5.1435 l -12.52537,13.81125 12.47775,13.81125 h -5.09588 l -10.8585,-11.85862 h -7.62 v 11.85862 h -3.90525 v -36.67125 h 3.90525 v 20.90738 h 7.62 z"
           inkscape:connector-curvature="0" />
        <path
           id="path978"
           style="font-style:normal;font-variant:normal;font-weight:normal;font-stretch:normal;font-size:47.625px;line-height:1.25em;font-family:Orbitron;-inkscape-font-specification:Orbitron;stroke-width:0.26458332"
           d="m 263.91998,295.33563 v -27.6225 h 3.90525 v 27.6225 z m 0,-36.67125 h 3.90525 v 3.90525 h -3.90525 z"
           inkscape:connector-curvature="0" />
        <path
           id="path980"
           style="font-style:normal;font-variant:normal;font-weight:normal;font-stretch:normal;font-size:47.625px;line-height:1.25em;font-family:Orbitron;-inkscape-font-specification:Orbitron;stroke-width:0.26458332"
           d="m 295.8412,267.71313 q 2.42888,0 4.09575,1.7145 1.7145,1.66688 1.7145,4.04813 v 10.00125 h -24.24112 v 6.096 q 0,0.762 0.52387,1.3335 0.5715,0.52387 1.3335,0.52387 h 22.38375 v 3.90525 H 279.2677 q -2.38125,0 -4.09575,-1.66687 -1.66687,-1.7145 -1.66687,-4.09575 v -16.09725 q 0,-2.38125 1.66687,-4.04813 1.7145,-1.7145 4.09575,-1.7145 z m -18.43087,11.85863 h 20.28825 v -6.096 q 0,-0.762 -0.5715,-1.28588 -0.52388,-0.5715 -1.28588,-0.5715 h -16.5735 q -0.762,0 -1.3335,0.5715 -0.52387,0.52388 -0.52387,1.28588 z"
           inkscape:connector-curvature="0" />
      </g>
    </g>
  </g>
</svg>
